<svg preserveAspectRatio="none" width="100%" height="100%" overflow="visible" style="display: block;" viewBox="0 0 116 20" fill="none" xmlns="http://www.w3.org/2000/svg">
<g id="Frame 101418">
<g id="logos:instagram-icon" clip-path="url(#clip0_1574_2175)">
<path id="Vector" d="M10 1.80188C12.6701 1.80188 12.9863 1.81203 14.0408 1.86008C15.0158 1.90461 15.5453 2.0675 15.8977 2.20445C16.3645 2.38586 16.6976 2.60258 17.0475 2.9525C17.3974 3.30242 17.6141 3.63555 17.7955 4.10227C17.9325 4.45469 18.0954 4.98422 18.1399 5.95914C18.188 7.01367 18.1981 7.32992 18.1981 10C18.1981 12.6701 18.188 12.9864 18.1399 14.0409C18.0954 15.0159 17.9325 15.5453 17.7955 15.8977C17.6141 16.3645 17.3974 16.6977 17.0475 17.0476C16.6976 17.3975 16.3645 17.6142 15.8977 17.7955C15.5453 17.9325 15.0158 18.0955 14.0408 18.1399C12.9865 18.188 12.6702 18.1982 10 18.1982C7.32977 18.1982 7.01344 18.188 5.95914 18.1399C4.98414 18.0954 4.45469 17.9325 4.10227 17.7955C3.63555 17.6142 3.30234 17.3975 2.95242 17.0476C2.6025 16.6976 2.38578 16.3645 2.20445 15.8977C2.0675 15.5454 1.90453 15.0159 1.86008 14.0409C1.81195 12.9864 1.8018 12.6702 1.8018 10C1.8018 7.32984 1.81195 7.01367 1.86008 5.95922C1.90461 4.98422 2.0675 4.45469 2.20445 4.10227C2.38578 3.63555 2.6025 3.30242 2.95242 2.9525C3.30242 2.6025 3.63555 2.38586 4.10227 2.20445C4.45461 2.0675 4.98414 1.90461 5.95914 1.86008C7.01359 1.81203 7.32984 1.80188 10 1.80188ZM10 8.40409e-07C7.28414 8.40409e-07 6.94359 0.0114852 5.87703 0.0601571C4.81258 0.108751 4.08562 0.277813 3.44961 0.525001C2.79195 0.780548 2.2343 1.1225 1.67836 1.67844C1.12242 2.23438 0.780547 2.79203 0.525 3.44961C0.277734 4.0857 0.10875 4.81266 0.0601562 5.87703C0.0114844 6.94359 0 7.28414 0 10C0 12.7159 0.0114844 13.0564 0.0601562 14.123C0.10875 15.1874 0.277734 15.9144 0.525 16.5504C0.780469 17.208 1.12242 17.7657 1.67836 18.3216C2.2343 18.8776 2.79195 19.2195 3.44961 19.475C4.0857 19.7223 4.81258 19.8913 5.87695 19.9398C6.94359 19.9885 7.28414 20 10 20C12.7159 20 13.0564 19.9885 14.123 19.9398C15.1873 19.8913 15.9143 19.7223 16.5503 19.475C17.208 19.2195 17.7656 18.8776 18.3216 18.3216C18.8775 17.7657 19.2195 17.208 19.475 16.5504C19.7222 15.9143 19.8912 15.1874 19.9398 14.123C19.9885 13.0564 20 12.7159 20 10C20 7.28414 19.9885 6.94359 19.9398 5.87703C19.8912 4.81266 19.7222 4.0857 19.475 3.44969C19.2195 2.79203 18.8775 2.23438 18.3216 1.67844C17.7656 1.1225 17.208 0.78047 16.5504 0.525001C15.9143 0.277813 15.1873 0.108751 14.123 0.0601571C13.0564 0.0114852 12.7159 8.40409e-07 10 8.40409e-07ZM10 4.86484C7.16391 4.86484 4.86484 7.16406 4.86484 10C4.86484 12.8359 7.16391 15.1352 10 15.1352C12.836 15.1352 15.1352 12.8361 15.1352 10C15.1352 7.16399 12.836 4.86484 10 4.86484ZM10 13.3334C8.15906 13.3334 6.66664 11.8409 6.66664 10C6.66664 8.15906 8.15906 6.66664 10 6.66664C11.8409 6.66664 13.3334 8.15906 13.3334 10C13.3334 11.8409 11.8409 13.3334 10 13.3334ZM16.538 4.66195C16.538 5.32477 16.0008 5.86195 15.338 5.86195C14.6752 5.86195 14.138 5.32477 14.138 4.66195C14.138 3.99914 14.6752 3.46195 15.338 3.46195C16.0007 3.46195 16.538 3.99922 16.538 4.66195Z" fill="var(--fill-0, white)"/>
</g>
<g id="devicon:twitter" clip-path="url(#clip1_1574_2175)">
<path id="Vector_2" d="M63.8619 8.46875L71.1472 0H69.4206L63.095 7.35313L58.0425 0H52.215L59.8553 11.1194L52.215 20H53.9416L60.6219 12.2348L65.9575 20H71.785L63.8614 8.46875H63.8619ZM61.4972 11.2172L60.723 10.11L54.5636 1.29969H57.2155L62.1859 8.41L62.96 9.51719L69.4214 18.7594H66.7698L61.4972 11.2177V11.2172Z" fill="var(--fill-0, white)"/>
</g>
<path id="Vector_3" fill-rule="evenodd" clip-rule="evenodd" d="M108.461 1.57744C109.497 0.567586 110.903 0.000168973 112.368 0H115.21C115.419 0 115.62 0.0810436 115.768 0.225302C115.916 0.369561 116 0.565218 116 0.769231V4.46154C116 4.66555 115.916 4.86121 115.768 5.00547C115.62 5.14973 115.419 5.23077 115.21 5.23077H112.368C112.347 5.23077 112.327 5.23475 112.308 5.24248C112.289 5.25021 112.271 5.26154 112.256 5.27583C112.242 5.29012 112.23 5.30708 112.222 5.32574C112.214 5.34441 112.21 5.36441 112.21 5.38462V7.38462H115.21C115.33 7.38455 115.449 7.41115 115.556 7.46239C115.664 7.51363 115.759 7.58817 115.833 7.68033C115.907 7.77249 115.958 7.87985 115.983 7.99424C116.008 8.10864 116.006 8.22707 115.976 8.34051L115.029 12.0328C114.986 12.1993 114.888 12.3471 114.749 12.4526C114.61 12.5582 114.439 12.6155 114.263 12.6154H112.21V19.2308C112.21 19.4348 112.127 19.6304 111.979 19.7747C111.831 19.919 111.63 20 111.421 20H107.631C107.422 20 107.221 19.919 107.073 19.7747C106.925 19.6304 106.842 19.4348 106.842 19.2308V12.6154H104.789C104.58 12.6154 104.379 12.5343 104.231 12.3901C104.083 12.2458 104 12.0502 104 11.8462V8.15385C104 8.05283 104.02 7.9528 104.06 7.85948C104.1 7.76615 104.158 7.68135 104.231 7.60992C104.305 7.53849 104.392 7.48183 104.487 7.44317C104.583 7.40451 104.686 7.38462 104.789 7.38462H106.842V5.38462C106.842 3.95659 107.425 2.58712 108.461 1.57744ZM112.368 1.53846C111.321 1.53846 110.317 1.94368 109.577 2.66497C108.837 3.38627 108.421 4.36455 108.421 5.38462V8.15385C108.421 8.35786 108.338 8.55352 108.19 8.69778C108.042 8.84203 107.841 8.92308 107.631 8.92308H105.579V11.0769H107.631C107.841 11.0769 108.042 11.158 108.19 11.3022C108.338 11.4465 108.421 11.6421 108.421 11.8462V18.4615H110.631V11.8462C110.631 11.6421 110.715 11.4465 110.863 11.3022C111.011 11.158 111.211 11.0769 111.421 11.0769H113.646L114.199 8.92308H111.421C111.211 8.92308 111.011 8.84203 110.863 8.69778C110.715 8.55352 110.631 8.35786 110.631 8.15385V5.38462C110.631 4.93579 110.814 4.50534 111.14 4.18797C111.466 3.8706 111.907 3.69231 112.368 3.69231H114.421V1.53846H112.368Z" fill="var(--fill-0, white)"/>
</g>
<defs>
<clipPath id="clip0_1574_2175">
<rect width="20" height="20" fill="white"/>
</clipPath>
<clipPath id="clip1_1574_2175">
<rect width="20" height="20" fill="white" transform="translate(52)"/>
</clipPath>
</defs>
</svg>
