<svg preserveAspectRatio="none" width="100%" height="100%" overflow="visible" style="display: block;" viewBox="0 0 56 45" fill="none" xmlns="http://www.w3.org/2000/svg">
<path id="Vector" d="M55.5186 23.2809L52.5512 25.1216C51.8766 25.5896 51.3838 26.3059 51.1493 27.1217C51.3706 27.6577 51.4998 28.2329 51.4998 28.8159C51.4998 29.6604 51.2573 30.4814 50.7908 31.1926C49.9554 32.4632 48.5455 33.1613 47.1145 33.1613C46.7298 33.1613 46.3398 33.109 45.9603 33.0071C45.9998 33.8699 45.7784 34.7536 45.2646 35.5301L45.1697 35.6713C44.3474 36.9289 42.9507 37.6112 41.5277 37.6112C41.0006 37.6112 40.4682 37.5041 39.9623 37.3106C39.9886 38.1812 39.7541 39.044 39.2666 39.7866C38.6262 40.7565 37.6405 41.4207 36.4941 41.6534C36.2043 41.7135 35.9144 41.7397 35.6298 41.7397C34.7733 41.7397 33.9353 41.486 33.2158 40.9971L32.9523 40.8219C32.918 41.6978 32.6229 42.5345 32.0747 43.2587C31.2182 44.3908 29.9031 45 28.567 45C27.7316 45 26.8883 44.7647 26.1372 44.2706L11.0264 34.2775C9.20536 33.0722 7.96407 31.2315 7.53189 29.0981C7.12077 27.0561 5.71087 25.3775 3.76072 24.601L0.637828 23.3616C0.118663 23.1551 -0.13168 22.572 0.0712284 22.057C0.279419 21.5419 0.867114 21.2936 1.38626 21.4949L4.50915 22.7342C7.09179 23.7591 8.96293 25.9867 9.50845 28.698C9.8326 30.3034 10.7708 31.6891 12.1385 32.5989L27.2575 42.5974C28.2958 43.2876 29.7004 43.0471 30.4489 42.0561C30.8389 41.5332 30.9944 40.8979 30.8864 40.2626C30.8047 39.7815 30.5754 39.3527 30.2381 39.0102L24.7328 35.308C24.7064 35.2871 24.6853 35.2688 24.659 35.2479C24.6326 35.2269 24.6063 35.2086 24.5773 35.1799C24.5562 35.159 24.5378 35.1328 24.5167 35.1067C24.4956 35.0805 24.4692 35.0544 24.4482 35.0256C24.435 34.9995 24.4218 34.9733 24.4086 34.9446C24.3954 34.9106 24.3744 34.8844 24.3612 34.8504C24.348 34.8243 24.3401 34.7903 24.3348 34.7642C24.3269 34.7302 24.3138 34.6962 24.3085 34.6648C24.3006 34.6308 24.3006 34.6047 24.3006 34.5707C24.2927 34.5367 24.2927 34.5027 24.2927 34.4713C24.2927 34.4373 24.3006 34.4033 24.3006 34.372C24.3006 34.338 24.3006 34.3118 24.3085 34.2778C24.3164 34.2439 24.3296 34.2099 24.3427 34.1785C24.3506 34.1524 24.3559 34.1184 24.3691 34.0922C24.3823 34.0582 24.4034 34.0242 24.4218 33.9981C24.435 33.9719 24.4482 33.9458 24.4613 33.917C24.4745 33.8961 24.4956 33.8778 24.5088 33.8569C24.5351 33.8229 24.5615 33.7889 24.5905 33.7628C24.5984 33.7549 24.6115 33.7497 24.6168 33.7366C24.6563 33.7026 24.6985 33.6634 24.746 33.6373C24.746 33.6373 24.7539 33.6373 24.7539 33.6294C24.8066 33.5954 24.8619 33.5693 24.9225 33.5432C24.9831 33.517 25.0437 33.5039 25.1123 33.4909H25.1202C25.1808 33.4778 25.2414 33.4699 25.3099 33.4699C25.3231 33.4699 25.3363 33.4699 25.3494 33.4778C25.4022 33.4778 25.4496 33.4856 25.5049 33.4909C25.5313 33.4987 25.5524 33.5039 25.5787 33.5118C25.6183 33.5249 25.6604 33.5327 25.6947 33.5458C25.7289 33.5588 25.7553 33.5798 25.7896 33.5928C25.8159 33.6059 25.8502 33.619 25.8765 33.6399L25.8844 33.6477L31.0129 37.0414C31.1894 37.1565 31.3502 37.2898 31.5057 37.4232L34.3598 39.337C34.879 39.6848 35.5009 39.805 36.107 39.6848C36.721 39.5645 37.2402 39.2089 37.5854 38.6938C37.9228 38.1788 38.0387 37.5617 37.9096 36.9604C37.7804 36.359 37.4168 35.8413 36.8897 35.5145L30.1827 31.3182C30.1485 31.2973 30.13 31.2789 30.101 31.2502C30.0747 31.2293 30.0483 31.211 30.0272 31.1901C30.0009 31.1639 29.9798 31.1378 29.9587 31.109C29.9376 31.0829 29.9192 31.0619 29.8981 31.0358C29.877 31.0097 29.8639 30.9757 29.8507 30.9495C29.8375 30.9234 29.8164 30.8972 29.8032 30.8685C29.7901 30.8423 29.7822 30.8083 29.7769 30.7822C29.7637 30.7482 29.7505 30.7142 29.7426 30.6828C29.7347 30.6567 29.7347 30.6305 29.7294 30.6018C29.7215 30.5626 29.7163 30.5286 29.7163 30.4867C29.7163 30.4606 29.7242 30.4397 29.7242 30.4135C29.7242 30.3743 29.7242 30.3325 29.7321 30.2933C29.74 30.2723 29.7453 30.254 29.7532 30.2253C29.7611 30.1861 29.7742 30.139 29.7874 30.0972C29.7953 30.071 29.8138 30.0501 29.827 30.0239C29.848 29.99 29.8612 29.9507 29.8797 29.9167C29.8928 29.8958 29.906 29.8775 29.9271 29.8645C29.9535 29.8305 29.9798 29.7912 30.0088 29.7651C30.0088 29.7651 30.0167 29.7651 30.0167 29.7573C30.2934 29.4749 30.7256 29.3755 31.0972 29.5167C31.1183 29.5246 31.1315 29.5376 31.1499 29.5429C31.1974 29.5638 31.2369 29.5821 31.2791 29.6108L40.3525 35.2609C41.4119 35.9172 42.8297 35.6086 43.5096 34.5707L43.6045 34.4295C44.3002 33.3785 43.9945 31.9587 42.9377 31.2711L34.4358 25.7491C33.9693 25.4484 33.8349 24.8262 34.1459 24.3582C34.1854 24.2981 34.2276 24.2432 34.275 24.1987C34.478 23.9974 34.7468 23.898 35.0235 23.9111C35.2053 23.9189 35.3819 23.9634 35.5427 24.0706L45.8709 30.7846C46.9777 31.4801 48.4272 31.1663 49.1229 30.1022C49.3733 29.7205 49.5077 29.2786 49.5077 28.8237C49.5077 28.4289 49.4075 28.0393 49.2178 27.6916C49.0359 27.3491 48.7724 27.0745 48.443 26.8628L28.1482 13.6877C28.019 13.6014 27.8635 13.5727 27.7107 13.6067C27.5552 13.6407 27.4261 13.7269 27.3391 13.8603L25.0648 17.322C24.1213 18.76 22.664 19.7509 20.9694 20.1065C19.2749 20.4621 17.5488 20.1327 16.0993 19.1966L15.7619 18.977C14.8976 18.4149 14.6551 17.2645 15.2164 16.4069L19.5015 9.88098C18.7742 9.96203 18.0574 10.1555 17.4038 10.4693C16.7081 10.8039 15.9596 10.9713 15.2033 10.9713C14.2387 10.9713 13.2742 10.6967 12.4441 10.1608L0.434611 1.83567C-0.0239427 1.52193 -0.139895 0.891788 0.184255 0.436913C0.500498 -0.0180217 1.13565 -0.133059 1.59414 0.188533L13.5773 8.48685C14.4338 9.04114 15.5749 9.11697 16.5184 8.65419C17.9362 7.97181 19.5464 7.69725 21.1118 7.85153C21.6178 7.41751 22.1844 7.05409 22.8195 6.80048L27.4129 4.98072C29.9033 3.99761 32.702 4.11006 35.0979 5.30231L40.0101 7.74428C41.5281 8.49989 43.3096 8.46066 44.7854 7.64493L54.3594 0.214054C54.7968 -0.128454 55.4399 -0.0526321 55.7825 0.389231C56.1277 0.82325 56.0513 1.46123 55.6059 1.80111L45.9786 9.27616C45.9391 9.30231 45.8969 9.32845 45.8574 9.35721C43.7729 10.5416 41.2508 10.6096 39.1028 9.54546L34.1905 7.10348C32.3142 6.16749 30.1162 6.07861 28.1661 6.84987L23.5727 8.66964C22.811 8.97031 22.1628 9.49324 21.7174 10.1835L17.0027 17.3707L17.2056 17.5093C18.2044 18.1577 19.3903 18.3799 20.5525 18.1394C21.72 17.8988 22.7187 17.2164 23.3723 16.2255L25.6467 12.7638C26.0235 12.1808 26.6112 11.786 27.299 11.6448C27.9816 11.5036 28.6747 11.6317 29.2624 12.0134L49.5228 25.1724C49.5914 25.2195 49.6651 25.2665 49.7258 25.3136C50.1448 24.5762 50.7298 23.9409 51.4388 23.4468L54.4536 21.5799C54.9254 21.2845 55.5526 21.4335 55.8504 21.9015C56.1403 22.3695 55.998 22.984 55.5183 23.2794L55.5186 23.2809Z" fill="var(--fill-0, white)"/>
</svg>
