<svg preserveAspectRatio="none" width="100%" height="100%" overflow="visible" style="display: block;" viewBox="0 0 92 20" fill="none" xmlns="http://www.w3.org/2000/svg">
<g id="Icons">
<g id="logos:instagram-icon" clip-path="url(#clip0_1574_2240)">
<path id="Vector" d="M10 1.80188C12.6701 1.80188 12.9863 1.81203 14.0408 1.86008C15.0158 1.90461 15.5453 2.0675 15.8977 2.20445C16.3645 2.38586 16.6976 2.60258 17.0475 2.9525C17.3974 3.30242 17.6141 3.63555 17.7955 4.10227C17.9325 4.45469 18.0954 4.98422 18.1399 5.95914C18.188 7.01367 18.1981 7.32992 18.1981 10C18.1981 12.6701 18.188 12.9864 18.1399 14.0409C18.0954 15.0159 17.9325 15.5453 17.7955 15.8977C17.6141 16.3645 17.3974 16.6977 17.0475 17.0476C16.6976 17.3975 16.3645 17.6142 15.8977 17.7955C15.5453 17.9325 15.0158 18.0955 14.0408 18.1399C12.9865 18.188 12.6702 18.1982 10 18.1982C7.32977 18.1982 7.01344 18.188 5.95914 18.1399C4.98414 18.0954 4.45469 17.9325 4.10227 17.7955C3.63555 17.6142 3.30234 17.3975 2.95242 17.0476C2.6025 16.6976 2.38578 16.3645 2.20445 15.8977C2.0675 15.5454 1.90453 15.0159 1.86008 14.0409C1.81195 12.9864 1.8018 12.6702 1.8018 10C1.8018 7.32984 1.81195 7.01367 1.86008 5.95922C1.90461 4.98422 2.0675 4.45469 2.20445 4.10227C2.38578 3.63555 2.6025 3.30242 2.95242 2.9525C3.30242 2.6025 3.63555 2.38586 4.10227 2.20445C4.45461 2.0675 4.98414 1.90461 5.95914 1.86008C7.01359 1.81203 7.32984 1.80188 10 1.80188ZM10 8.40409e-07C7.28414 8.40409e-07 6.94359 0.0114852 5.87703 0.0601571C4.81258 0.108751 4.08562 0.277813 3.44961 0.525001C2.79195 0.780548 2.2343 1.1225 1.67836 1.67844C1.12242 2.23438 0.780547 2.79203 0.525 3.44961C0.277734 4.0857 0.10875 4.81266 0.0601562 5.87703C0.0114844 6.94359 0 7.28414 0 10C0 12.7159 0.0114844 13.0564 0.0601562 14.123C0.10875 15.1874 0.277734 15.9144 0.525 16.5504C0.780469 17.208 1.12242 17.7657 1.67836 18.3216C2.2343 18.8776 2.79195 19.2195 3.44961 19.475C4.0857 19.7223 4.81258 19.8913 5.87695 19.9398C6.94359 19.9885 7.28414 20 10 20C12.7159 20 13.0564 19.9885 14.123 19.9398C15.1873 19.8913 15.9143 19.7223 16.5503 19.475C17.208 19.2195 17.7656 18.8776 18.3216 18.3216C18.8775 17.7657 19.2195 17.208 19.475 16.5504C19.7222 15.9143 19.8912 15.1874 19.9398 14.123C19.9885 13.0564 20 12.7159 20 10C20 7.28414 19.9885 6.94359 19.9398 5.87703C19.8912 4.81266 19.7222 4.0857 19.475 3.44969C19.2195 2.79203 18.8775 2.23438 18.3216 1.67844C17.7656 1.1225 17.208 0.78047 16.5504 0.525001C15.9143 0.277813 15.1873 0.108751 14.123 0.0601571C13.0564 0.0114852 12.7159 8.40409e-07 10 8.40409e-07ZM10 4.86484C7.16391 4.86484 4.86484 7.16406 4.86484 10C4.86484 12.8359 7.16391 15.1352 10 15.1352C12.836 15.1352 15.1352 12.8361 15.1352 10C15.1352 7.16399 12.836 4.86484 10 4.86484ZM10 13.3334C8.15906 13.3334 6.66664 11.8409 6.66664 10C6.66664 8.15906 8.15906 6.66664 10 6.66664C11.8409 6.66664 13.3334 8.15906 13.3334 10C13.3334 11.8409 11.8409 13.3334 10 13.3334ZM16.538 4.66195C16.538 5.32477 16.0008 5.86195 15.338 5.86195C14.6752 5.86195 14.138 5.32477 14.138 4.66195C14.138 3.99914 14.6752 3.46195 15.338 3.46195C16.0007 3.46195 16.538 3.99922 16.538 4.66195Z" fill="var(--fill-0, white)"/>
</g>
<g id="devicon:twitter" clip-path="url(#clip1_1574_2240)">
<path id="Vector_2" d="M51.8619 8.46875L59.1472 0H57.4206L51.095 7.35313L46.0425 0H40.215L47.8553 11.1194L40.215 20H41.9416L48.6219 12.2348L53.9575 20H59.785L51.8614 8.46875H51.8619ZM49.4972 11.2172L48.723 10.11L42.5636 1.29969H45.2155L50.1859 8.41L50.96 9.51719L57.4214 18.7594H54.7698L49.4972 11.2177V11.2172Z" fill="var(--fill-0, white)"/>
</g>
<path id="Vector_3" fill-rule="evenodd" clip-rule="evenodd" d="M84.4609 1.57744C85.4971 0.567586 86.9026 0.000168973 88.3681 0H91.2101C91.4195 0 91.6203 0.0810436 91.7683 0.225302C91.9164 0.369561 91.9996 0.565218 91.9996 0.769231V4.46154C91.9996 4.66555 91.9164 4.86121 91.7683 5.00547C91.6203 5.14973 91.4195 5.23077 91.2101 5.23077H88.3681C88.3474 5.23077 88.3268 5.23475 88.3077 5.24248C88.2885 5.25021 88.2711 5.26154 88.2565 5.27583C88.2418 5.29012 88.2302 5.30708 88.2222 5.32574C88.2143 5.34441 88.2102 5.36441 88.2102 5.38462V7.38462H91.2101C91.3301 7.38455 91.4486 7.41115 91.5565 7.46239C91.6643 7.51363 91.7588 7.58817 91.8327 7.68033C91.9066 7.77249 91.9579 7.87985 91.9828 7.99424C92.0077 8.10864 92.0055 8.22707 91.9764 8.34051L91.0291 12.0328C90.9863 12.1993 90.8877 12.3471 90.7488 12.4526C90.61 12.5582 90.4389 12.6155 90.2628 12.6154H88.2102V19.2308C88.2102 19.4348 88.1271 19.6304 87.979 19.7747C87.831 19.919 87.6302 20 87.4208 20H83.6314C83.4221 20 83.2213 19.919 83.0732 19.7747C82.9252 19.6304 82.842 19.4348 82.842 19.2308V12.6154H80.7894C80.5801 12.6154 80.3793 12.5343 80.2312 12.3901C80.0832 12.2458 80 12.0502 80 11.8462V8.15385C80 8.05283 80.0204 7.9528 80.0601 7.85948C80.0998 7.76615 80.1579 7.68135 80.2312 7.60992C80.3045 7.53849 80.3916 7.48183 80.4873 7.44317C80.5831 7.40451 80.6858 7.38462 80.7894 7.38462H82.842V5.38462C82.8422 3.95659 83.4245 2.58712 84.4609 1.57744ZM88.3681 1.53846C87.3212 1.53846 86.3173 1.94368 85.577 2.66497C84.8368 3.38627 84.4209 4.36455 84.4209 5.38462V8.15385C84.4209 8.35786 84.3377 8.55352 84.1897 8.69778C84.0416 8.84203 83.8408 8.92308 83.6314 8.92308H81.5789V11.0769H83.6314C83.8408 11.0769 84.0416 11.158 84.1897 11.3022C84.3377 11.4465 84.4209 11.6421 84.4209 11.8462V18.4615H86.6313V11.8462C86.6313 11.6421 86.7145 11.4465 86.8626 11.3022C87.0106 11.158 87.2114 11.0769 87.4208 11.0769H89.646L90.1986 8.92308H87.4208C87.2114 8.92308 87.0106 8.84203 86.8626 8.69778C86.7145 8.55352 86.6313 8.35786 86.6313 8.15385V5.38462C86.6313 4.93579 86.8143 4.50534 87.14 4.18797C87.4657 3.8706 87.9075 3.69231 88.3681 3.69231H90.4207V1.53846H88.3681Z" fill="var(--fill-0, white)"/>
</g>
<defs>
<clipPath id="clip0_1574_2240">
<rect width="20" height="20" fill="white"/>
</clipPath>
<clipPath id="clip1_1574_2240">
<rect width="20" height="20" fill="white" transform="translate(40)"/>
</clipPath>
</defs>
</svg>
