<svg xmlns="http://www.w3.org/2000/svg" width="640" height="420" viewBox="0 0 640 420" role="img" aria-label="CTA panels preview">
  <rect width="320" height="420" fill="#e86834"/>
  <rect x="320" width="320" height="420" fill="#311e41"/>
  <rect x="64" y="94" width="162" height="24" rx="4" fill="#ffffff"/>
  <rect x="64" y="130" width="206" height="24" rx="4" fill="#ffffff"/>
  <rect x="64" y="166" width="144" height="24" rx="4" fill="#ffffff"/>
  <rect x="64" y="220" width="198" height="10" rx="5" fill="#ffffff" opacity="0.82"/>
  <rect x="64" y="240" width="148" height="10" rx="5" fill="#ffffff" opacity="0.82"/>
  <rect x="64" y="300" width="224" height="54" rx="2" fill="#ffffff"/>
  <rect x="88" y="322" width="104" height="12" rx="6" fill="#000000"/>
  <rect x="252" y="315" width="18" height="24" rx="2" fill="none" stroke="#000000" stroke-width="3"/>
  <path d="M256 315v8h8" fill="none" stroke="#000000" stroke-width="3"/>
  <rect x="384" y="94" width="154" height="24" rx="4" fill="#ffffff"/>
  <rect x="384" y="130" width="184" height="24" rx="4" fill="#ffffff"/>
  <rect x="384" y="220" width="190" height="10" rx="5" fill="#ffffff" opacity="0.82"/>
  <rect x="384" y="240" width="126" height="10" rx="5" fill="#ffffff" opacity="0.82"/>
  <rect x="384" y="300" width="224" height="54" rx="2" fill="#ffffff"/>
  <rect x="408" y="322" width="100" height="12" rx="6" fill="#000000"/>
  <path d="M562 308v38M550 318c0-7 6-10 12-10 7 0 12 3 12 10M574 336c0 7-6 10-12 10-7 0-12-3-12-10M544 327h36" fill="none" stroke="#000000" stroke-width="4" stroke-linecap="round"/>
</svg>
