<svg xmlns="http://www.w3.org/2000/svg" width="640" height="420" viewBox="0 0 640 420" role="img" aria-label="Hero 1 preview">
  <rect width="640" height="420" fill="#ffffff"/>
  <rect x="48" y="70" width="190" height="34" rx="4" fill="#061629"/>
  <rect x="48" y="112" width="150" height="34" rx="4" fill="#061629"/>
  <rect x="48" y="154" width="112" height="34" rx="4" fill="#5f3a78"/>
  <rect x="48" y="226" width="170" height="12" rx="6" fill="#4a4a4a"/>
  <rect x="48" y="248" width="210" height="12" rx="6" fill="#4a4a4a"/>
  <rect x="48" y="270" width="184" height="12" rx="6" fill="#4a4a4a"/>
  <rect x="48" y="330" width="150" height="38" rx="2" fill="#000000"/>
  <rect x="304" y="62" width="288" height="296" fill="#e9e9e9"/>
  <rect x="304" y="62" width="68" height="8" fill="#e36a38"/>
  <rect x="372" y="62" width="140" height="8" fill="#874e9f"/>
  <rect x="512" y="62" width="80" height="8" fill="#462458"/>
  <circle cx="420" cy="205" r="52" fill="#c9c9c9"/>
  <rect x="474" y="150" width="72" height="150" rx="36" fill="#b9b9b9"/>
  <path d="M304 358L390 256L462 320L520 238L592 358Z" fill="#d5d5d5"/>
</svg>
