<svg xmlns="http://www.w3.org/2000/svg" width="640" height="420" viewBox="0 0 640 420" role="img" aria-label="Highlight banner preview">
  <rect width="640" height="420" fill="#321f45"/>
  <rect x="64" y="72" width="188" height="38" rx="4" fill="#ffffff"/>
  <rect x="64" y="122" width="152" height="38" rx="4" fill="#ffffff"/>
  <rect x="344" y="78" width="222" height="13" rx="6.5" fill="#ffffff" opacity="0.92"/>
  <rect x="344" y="102" width="194" height="13" rx="6.5" fill="#ffffff" opacity="0.92"/>
  <rect x="344" y="126" width="214" height="13" rx="6.5" fill="#ffffff" opacity="0.92"/>
  <rect x="344" y="168" width="205" height="13" rx="6.5" fill="#ffffff" opacity="0.92"/>
  <rect x="344" y="192" width="178" height="13" rx="6.5" fill="#ffffff" opacity="0.92"/>
  <rect x="344" y="234" width="214" height="13" rx="6.5" fill="#ffffff" opacity="0.92"/>
  <rect x="344" y="258" width="186" height="13" rx="6.5" fill="#ffffff" opacity="0.92"/>
  <rect x="344" y="316" width="184" height="54" rx="2" fill="#ffffff"/>
  <rect x="366" y="337" width="104" height="12" rx="6" fill="#111111"/>
  <path d="M493 344l10-10 10 10M503 334v22" fill="none" stroke="#111111" stroke-linecap="round" stroke-linejoin="round" stroke-width="3" transform="rotate(90 503 345)"/>
  <rect x="344" y="386" width="232" height="10" rx="5" fill="#b9a7c8"/>
</svg>
