<svg xmlns="http://www.w3.org/2000/svg" width="640" height="420" viewBox="0 0 640 420" role="img" aria-label="Highlights carousel preview">
  <rect width="640" height="420" fill="#050505"/>
  <rect x="64" y="58" width="104" height="14" rx="7" fill="#ffffff"/>
  <circle cx="522" cy="64" r="18" fill="#ffffff" opacity="0.22"/>
  <path d="M527 56l-8 8 8 8" fill="none" stroke="#ffffff" stroke-linecap="round" stroke-linejoin="round" stroke-width="3" opacity="0.9"/>
  <circle cx="572" cy="64" r="18" fill="#ffffff" opacity="0.22"/>
  <path d="M567 56l8 8-8 8" fill="none" stroke="#ffffff" stroke-linecap="round" stroke-linejoin="round" stroke-width="3" opacity="0.9"/>
  <rect x="64" y="136" width="206" height="36" rx="4" fill="#ffffff"/>
  <rect x="64" y="184" width="164" height="36" rx="4" fill="#ffffff"/>
  <circle cx="74" cy="270" r="5" fill="#ffffff"/>
  <circle cx="96" cy="270" r="5" fill="#9f84b5"/>
  <circle cx="118" cy="270" r="5" fill="#9f84b5"/>
  <g opacity="0.32">
    <rect x="330" y="136" width="208" height="118" fill="#ffffff"/>
    <circle cx="402" cy="196" r="24" fill="#bcbcbc"/>
    <path d="M330 254l54-42 42 28 48-46 64 60Z" fill="#d9d9d9"/>
  </g>
  <rect x="360" y="116" width="216" height="122" fill="#ffffff"/>
  <circle cx="442" cy="178" r="32" fill="#bcbcbc"/>
  <path d="M360 238l56-46 52 30 52-48 56 64Z" fill="#d9d9d9"/>
  <rect x="360" y="276" width="190" height="12" rx="6" fill="#ffffff" opacity="0.86"/>
  <rect x="360" y="300" width="160" height="12" rx="6" fill="#ffffff" opacity="0.86"/>
  <rect x="360" y="346" width="132" height="38" rx="2" fill="#ffffff"/>
  <path d="M462 356l10 10-10 10" fill="none" stroke="#111111" stroke-linecap="round" stroke-linejoin="round" stroke-width="3"/>
</svg>
