<svg xmlns="http://www.w3.org/2000/svg" width="640" height="420" viewBox="0 0 640 420" role="img" aria-label="Testimonials carousel preview">
  <rect width="640" height="420" fill="#f0eef5"/>
  <rect x="64" y="58" width="230" height="34" rx="4" fill="#061629"/>
  <rect x="64" y="116" width="210" height="12" rx="6" fill="#4a4a4a"/>
  <rect x="402" y="64" width="42" height="42" rx="21" fill="#ffffff"/>
  <rect x="462" y="64" width="42" height="42" rx="21" fill="#ffffff"/>
  <rect x="96" y="176" width="210" height="154" rx="4" fill="#ffffff"/>
  <rect x="96" y="176" width="48" height="6" fill="#e36a38"/>
  <rect x="144" y="176" width="122" height="6" fill="#874e9f"/>
  <rect x="266" y="176" width="40" height="6" fill="#462458"/>
  <rect x="124" y="220" width="142" height="12" rx="6" fill="#4a4a4a"/>
  <rect x="124" y="246" width="154" height="12" rx="6" fill="#4a4a4a"/>
  <rect x="124" y="272" width="108" height="12" rx="6" fill="#4a4a4a"/>
  <rect x="334" y="176" width="210" height="154" rx="4" fill="#ffffff"/>
  <rect x="334" y="176" width="48" height="6" fill="#e36a38"/>
  <rect x="382" y="176" width="122" height="6" fill="#874e9f"/>
  <rect x="504" y="176" width="40" height="6" fill="#462458"/>
  <rect x="362" y="220" width="142" height="12" rx="6" fill="#4a4a4a"/>
  <rect x="362" y="246" width="154" height="12" rx="6" fill="#4a4a4a"/>
  <rect x="362" y="272" width="108" height="12" rx="6" fill="#4a4a4a"/>
</svg>
